<?xml version="1.0" encoding="UTF-8"?><svg xmlns="http://www.w3.org/2000/svg" viewBox="0 0 400 400"><defs><style>.cls-1,.cls-2{stroke-width:3px;}.cls-1,.cls-2,.cls-3,.cls-4{stroke:#000;stroke-miterlimit:10;}.cls-2{fill:none;}.cls-3{stroke-width:7px;}.cls-3,.cls-4{fill:#fff;}.cls-4{stroke-width:5px;}</style></defs><g id="Layer_1"><rect class="cls-3" x="184.97" y="232.04" width="86.43" height="86.43" rx="27" ry="27" transform="translate(-41.49 40.5) rotate(-9.3)"/><rect class="cls-3" x="298.78" y="235.47" width="86.43" height="86.43" rx="27" ry="27" transform="translate(40.91 -43.77) rotate(7.79)"/><rect class="cls-3" x="238.88" y="301.36" width="86.43" height="86.43" rx="27" ry="27" transform="translate(35.38 -26.16) rotate(5.66)"/><path d="m333.44,283.08l.32-2.05c.28-1.77.9-3.25,1.86-4.44.96-1.19,2.57-2.36,4.81-3.52,2.15-1.08,3.61-2,4.36-2.77.75-.77,1.22-1.69,1.39-2.76.19-1.2-.11-2.18-.89-2.95-.78-.77-1.97-1.28-3.56-1.53-2.77-.44-6.06-.03-9.89,1.21l-2.05-6.53c4.48-1.65,9.02-2.12,13.62-1.38,3.8.6,6.67,1.99,8.62,4.17,1.95,2.18,2.68,4.79,2.2,7.83-.32,2.03-1.06,3.71-2.21,5.03-1.16,1.33-3.17,2.71-6.04,4.15-1.98,1.03-3.25,1.85-3.83,2.45-.58.61-.96,1.46-1.13,2.57l-.26,1.66-7.33-1.16Zm-2.38,9.32c.25-1.55.85-2.65,1.8-3.32.95-.66,2.22-.87,3.81-.62,1.53.24,2.65.84,3.36,1.78.71.94.95,2.17.71,3.68-.23,1.46-.84,2.54-1.82,3.24-.98.7-2.23.94-3.74.7-1.55-.25-2.68-.85-3.4-1.8-.72-.96-.96-2.18-.72-3.67Z"/><path d="m225.61,282.28l-.32-2.05c-.28-1.77-.15-3.37.4-4.8.55-1.43,1.71-3.04,3.49-4.83,1.72-1.69,2.81-3.02,3.3-3.98.48-.96.63-1.98.47-3.05-.19-1.2-.78-2.04-1.76-2.53-.98-.49-2.27-.6-3.85-.35-2.77.44-5.77,1.84-9.03,4.21l-3.97-5.58c3.75-2.95,7.92-4.8,12.53-5.53,3.8-.6,6.96-.17,9.49,1.3,2.53,1.47,4.03,3.73,4.52,6.77.32,2.03.14,3.85-.55,5.47-.69,1.62-2.18,3.56-4.46,5.81-1.56,1.59-2.53,2.76-2.89,3.52-.36.76-.46,1.69-.28,2.79l.26,1.66-7.33,1.16Zm.61,9.6c-.25-1.55-.02-2.79.69-3.71s1.85-1.51,3.43-1.76c1.53-.24,2.78-.02,3.75.65.97.68,1.57,1.77,1.81,3.29.23,1.46-.01,2.67-.73,3.64-.71.97-1.83,1.58-3.34,1.82-1.55.25-2.81.02-3.79-.66-.98-.68-1.59-1.77-1.82-3.27Z"/></g><g id="Layer_3"><g><path class="cls-4" d="m286.61,320.08c.79-1,4.59-.37,6.33,1.97,1.77,2.39-.14,4.48,1.65,8.11,1.14,2.32,2.14,1.9,3.14,4.32,1.17,2.81,0,3.79,1.13,6.29,1.25,2.75,3.04,2.34,3.9,4.74.92,2.54-.84,3.68-.69,7.13.19,4.39,3.14,4.71,3.27,8.4.15,4.32-3.73,8.66-7.63,10.27-1.32.54-2.33.64-5.96.7-7.69.13-11.54.19-14.43-.2-3.59-.48-8.33-1.16-13.8-3.85-3.14-1.55-5.79-2.89-7.86-6.01-.86-1.29-3.11-4.69-2.41-8.54.6-3.26,2.68-3.32,3.9-8.02.44-1.7.46-2.81,1.37-4.69.46-.94,1.17-2.36,2.58-3.61,1.83-1.61,2.69-1.04,4.05-2.48,1.49-1.57.75-2.56,2.13-4.27,1.37-1.68,3.28-2.21,5.5-2.81,1.55-.42,2.84-.55,5.42-.79,1.21-.12,3.15-.26,5.47-1.08,1.03-.36,1.51-.63,1.87-1.12.52-.72.65-1.75.86-3.33.12-.89.07-.97.2-1.13Z"/><ellipse class="cls-2" cx="267.82" cy="348.84" rx="6" ry="4.93" transform="translate(-121.83 552.78) rotate(-80.11)"/><ellipse class="cls-1" cx="267.92" cy="351.47" rx="2" ry="1.92" transform="translate(-124.33 555.06) rotate(-80.11)"/><ellipse class="cls-2" cx="291.96" cy="352.47" rx="6" ry="4.93" transform="translate(-105.41 579.56) rotate(-80.11)"/><ellipse class="cls-1" cx="290.7" cy="354.86" rx="2" ry="1.92" transform="translate(-108.8 580.31) rotate(-80.11)"/><path class="cls-1" d="m274.82,356.09c.74-.24,1.8,1.55,4.47,2.06,2.48.47,4.01-.62,4.46-.22.83.73-3.51,5.11-5.99,4.37-.58-.17-.91-.64-1.54-1.55-1.24-1.8-2.26-4.38-1.4-4.66Z"/></g></g></svg>